HIERARCHY
ROOT Hips
{
	OFFSET 0.000000 0.000000 0.000000
	CHANNELS 6 Xposition Yposition Zposition Zrotation Yrotation Xrotation 
	JOINT LHipJoint
	{
		OFFSET 0.000000 0.000000 0.000000
		CHANNELS 3 Zrotation Yrotation Xrotation
		JOINT LeftUpLeg
		{
			OFFSET 8.178360 -10.767780 5.035740
			CHANNELS 3 Zrotation Yrotation Xrotation
			JOINT LeftLeg
			{
				OFFSET 14.688660 -40.356780 0.000000
				CHANNELS 3 Zrotation Yrotation Xrotation
				JOINT LeftFoot
				{
					OFFSET 15.373200 -42.237540 0.000000
					CHANNELS 3 Zrotation Yrotation Xrotation
					JOINT LeftToeBase
					{
						OFFSET 0.945840 -2.598660 13.935300
						CHANNELS 3 Zrotation Yrotation Xrotation
						End Site
						{
							OFFSET 0.000000 0.000000 0.000000
						}
					}
				}
			}
		}
	}
	JOINT RHipJoint
	{
		OFFSET 0.000000 0.000000 0.000000
		CHANNELS 3 Zrotation Yrotation Xrotation
		JOINT RightUpLeg
		{
			OFFSET -7.833120 -10.767780 5.035740
			CHANNELS 3 Zrotation Yrotation Xrotation
			JOINT RightLeg
			{
				OFFSET -15.255180 -41.913300 0.000000
				CHANNELS 3 Zrotation Yrotation Xrotation
				JOINT RightFoot
				{
					OFFSET -15.409560 -42.337380 0.000000
					CHANNELS 3 Zrotation Yrotation Xrotation
					JOINT RightToeBase
					{
						OFFSET -0.988380 -2.715540 14.178900
						CHANNELS 3 Zrotation Yrotation Xrotation
						End Site
						{
							OFFSET 0.000000 0.000000 0.000000
						}
					}
				}
			}
		}
	}
	JOINT LowerBack
	{
		OFFSET 0.000000 0.000000 0.000000
		CHANNELS 3 Zrotation Yrotation Xrotation
		JOINT Spine
		{
			OFFSET 0.169620 12.213540 -1.160280
			CHANNELS 3 Zrotation Yrotation Xrotation
			JOINT Spine1
			{
				OFFSET 0.340320 12.293100 -0.256500
				CHANNELS 3 Zrotation Yrotation Xrotation
				JOINT Neck
				{
					OFFSET 0.000000 0.000000 0.000000
					CHANNELS 3 Zrotation Yrotation Xrotation
					JOINT Neck1
					{
						OFFSET -0.325020 10.477440 1.032120
						CHANNELS 3 Zrotation Yrotation Xrotation
						JOINT Head
						{
							OFFSET 0.624420 10.568160 -0.743820
							CHANNELS 3 Zrotation Yrotation Xrotation
							End Site
							{
								OFFSET 0.000000 0.000000 0.000000
							}
						}
					}
				}
				JOINT LeftShoulder
				{
					OFFSET 0.000000 0.000000 0.000000
					CHANNELS 3 Zrotation Yrotation Xrotation
					JOINT LeftArm
					{
						OFFSET 20.174460 7.205340 -1.867260
						CHANNELS 3 Zrotation Yrotation Xrotation
						JOINT LeftForeArm
						{
							OFFSET 29.898000 -0.000000 -0.000000
							CHANNELS 3 Zrotation Yrotation Xrotation
							JOINT LeftHand
							{
								OFFSET 20.901360 -0.000000 -0.000000
								CHANNELS 3 Zrotation Yrotation Xrotation
								JOINT LeftFingerBase
								{
									OFFSET 0.000000 0.000000 0.000000
									CHANNELS 3 Zrotation Yrotation Xrotation
									JOINT LeftHandIndex1
									{
										OFFSET 4.291560 -0.000000 -0.000000
										CHANNELS 3 Zrotation Yrotation Xrotation
										End Site
										{
											OFFSET 0.000000 0.000000 0.000000
										}
									}
								}
								JOINT LThumb
								{
									OFFSET 0.000000 0.000000 0.000000
									CHANNELS 3 Zrotation Yrotation Xrotation
									End Site
									{
										OFFSET 0.000000 0.000000 0.000000
									}
								}
							}
						}
					}
				}
				JOINT RightShoulder
				{
					OFFSET 0.000000 0.000000 0.000000
					CHANNELS 3 Zrotation Yrotation Xrotation
					JOINT RightArm
					{
						OFFSET -18.819600 8.244300 -2.427900
						CHANNELS 3 Zrotation Yrotation Xrotation
						JOINT RightForeArm
						{
							OFFSET -31.451400 -0.000000 -0.000000
							CHANNELS 3 Zrotation Yrotation Xrotation
							JOINT RightHand
							{
								OFFSET -20.665020 -0.000000 -0.000000
								CHANNELS 3 Zrotation Yrotation Xrotation
								JOINT RightFingerBase
								{
									OFFSET 0.000000 0.000000 0.000000
									CHANNELS 3 Zrotation Yrotation Xrotation
									JOINT RightHandIndex1
									{
										OFFSET -3.735180 -0.000000 -0.000000
										CHANNELS 3 Zrotation Yrotation Xrotation
										End Site
										{
											OFFSET 0.000000 0.000000 0.000000
										}
									}
								}
								JOINT RThumb
								{
									OFFSET 0.000000 0.000000 0.000000
									CHANNELS 3 Zrotation Yrotation Xrotation
									End Site
									{
										OFFSET 0.000000 0.000000 0.000000
									}
								}
							}
						}
					}
				}
			}
		}
	}
}
MOTION
Frames:	8
Frame Time:	0.0333333
-74.904576 107.169816 44.203290 20.283276 82.819844 21.658295 -3.923506 1.060947 2.497577 -14.669932 -6.327557 -8.427441 -0.131988 7.194774 21.759912 1.443894 -9.711908 -0.359959 0.012400 -0.718300 -1.973900 0.687230 -1.391048 1.026861 9.998517 -4.067015 -14.591871 -4.312389 -13.057607 39.810807 0.024504 -3.426190 -11.154084 -0.002900 0.348500 -0.957600 -0.997574 3.342017 8.938764 0.686762 4.409082 0.564639 -1.259133 2.138240 -5.168854 -9.409866 -2.045711 -15.154539 3.947256 -0.443847 24.839834 3.899200 -0.945300 15.892200 -6.046920 -1.504511 -1.567673 -77.989559 1.450447 21.233768 18.639606 -26.492518 -5.390959 -1.609019 -2.181081 4.054054 24.828281 20.631876 10.875300 -7.125000 0.000000 0.000000 -2.956900 55.159800 -0.738100 5.059786 1.270417 -1.319103 83.132853 -4.446546 7.651915 -19.811953 28.834753 -5.529888 0.405700 -0.211191 6.455447 -16.740305 10.533316 -3.276900 7.125000 0.000000 0.000000 6.987400 -18.858700 4.386400 
-74.915430 107.175846 43.341396 11.939773 80.780269 13.373341 -3.905320 1.101090 2.548786 -14.648114 -5.204521 -8.970428 -0.027550 7.448015 22.413068 1.396912 -8.792800 -1.293858 0.029600 -1.110000 -3.051600 0.686377 -1.272103 0.916533 13.564349 -7.067996 -16.076044 -5.003398 -13.680678 42.526152 -0.429982 -1.553076 -11.328943 -0.111300 2.151200 -5.923800 -1.436263 3.134553 8.363226 1.000254 4.071285 0.607987 -0.265759 1.993829 -4.827388 -10.244214 -1.336832 -15.514273 3.895486 0.913798 24.872657 4.229800 -0.550700 15.850000 -6.028366 -1.493405 -1.576554 -78.524201 1.699975 18.036669 18.567191 -26.430979 -5.332726 -1.578957 -2.227783 3.404939 24.546117 20.786200 10.819800 -7.125000 0.000000 0.000000 -3.321600 55.294500 -0.840200 5.099420 1.227085 -1.334867 82.541224 -4.161308 10.847239 -20.093582 29.175230 -5.694251 0.369005 -0.199017 5.051669 -15.389771 10.980091 -3.121700 7.125000 0.000000 0.000000 7.965200 -18.487300 5.077700 
-74.979966 107.003946 42.250302 9.301575 79.402315 10.684536 -3.887157 1.079397 2.484028 -15.112150 -5.329322 -9.403681 0.140800 7.841493 23.535453 1.297845 -7.798523 -2.095474 0.012300 -0.716800 -1.969900 0.734476 -1.231892 0.907337 16.357871 -10.063293 -16.870741 -5.350147 -13.904111 43.713263 -1.022910 1.132854 -11.164018 -0.110500 2.143100 -5.901200 -1.302634 2.953747 8.124250 0.915559 3.844601 0.597712 -0.478305 1.893815 -4.645924 -10.345661 -1.177094 -15.754764 3.944979 1.175527 24.950526 4.326400 -0.471500 15.922400 -6.059139 -1.476543 -1.571163 -78.379317 1.680792 16.600033 18.261209 -26.063689 -5.150035 -1.627426 -2.250956 3.274595 24.946464 21.083472 11.169300 -7.125000 0.000000 0.000000 -2.934500 55.722400 -0.772600 5.080482 1.228397 -1.343620 82.948934 -4.132956 12.037670 -20.461487 29.617279 -5.894853 0.381217 -0.204944 6.380674 -16.077344 10.873298 -3.236000 7.125000 0.000000 0.000000 7.471100 -18.556100 4.745600 
-74.951016 106.811544 41.320254 7.700138 77.864267 9.152897 -3.846385 1.033779 2.425341 -15.662803 -4.636240 -10.150388 0.308839 8.188460 24.532404 1.265827 -7.272892 -3.019215 0.030500 -1.127300 -3.099200 0.834525 -1.199852 0.934628 18.612263 -11.664947 -16.390487 -5.109945 -13.551770 42.633158 -1.266873 2.931832 -9.270527 -0.202700 2.898800 -7.997000 -0.968841 2.859983 7.549535 0.676961 3.758978 0.560245 -1.101568 1.864598 -4.328321 -10.390079 -1.118723 -15.671659 4.031921 1.211846 24.845480 4.396700 -0.460600 15.824100 -6.096030 -1.438297 -1.564208 -77.727191 1.813355 16.795076 18.005623 -25.783782 -5.017598 -1.619273 -2.314596 2.777572 24.828329 21.660396 11.388400 -7.125000 0.000000 0.000000 -3.254000 56.361900 -0.907300 5.038286 1.229648 -1.340219 83.453513 -4.032431 12.400839 -20.614792 29.837818 -5.995297 0.357397 -0.233221 7.275077 -15.727813 11.562286 -3.361800 7.125000 0.000000 0.000000 7.725500 -17.846400 5.032200 
-74.930508 106.585968 40.381158 8.171729 75.905898 9.887486 -3.821320 0.939930 2.321348 -16.694646 -3.987338 -11.045274 0.465617 8.513044 25.480761 1.187204 -6.357344 -4.229229 0.122500 -2.256700 -6.215700 0.983894 -1.181901 1.016902 19.538147 -11.326600 -14.885991 -4.313473 -12.658527 39.391885 -0.949824 1.825029 -7.853896 -0.103400 -2.073100 5.707800 -0.843309 2.934541 6.855399 0.413988 3.872861 0.455546 -1.697233 1.934729 -4.107633 -10.735525 -1.152013 -15.568148 4.067195 1.245165 24.843104 4.503700 -0.503500 15.788100 -6.142273 -1.397360 -1.571711 -77.505717 2.020182 17.610705 17.767652 -25.488459 -4.895519 -1.595665 -2.282314 2.868784 24.400226 21.182391 10.952600 -7.125000 0.000000 0.000000 -3.577900 55.728400 -0.942800 4.985701 1.231077 -1.338501 83.467781 -4.042750 13.425475 -20.808339 30.070986 -6.100629 0.389195 -0.211150 6.357796 -16.381600 11.107914 -3.371500 7.125000 0.000000 0.000000 7.250600 -18.288000 4.646600 
-74.940156 106.356774 39.784650 5.434424 73.481249 6.962823 -3.662385 0.937321 2.280713 -16.688326 -2.562597 -11.987866 0.806461 9.099802 27.223554 1.248724 -6.438528 -5.104511 0.074000 -1.754500 -4.827700 1.201649 -1.151349 1.115368 20.345648 -9.635526 -11.898859 -3.214970 -11.357731 34.792717 -0.131040 -2.930589 -11.981381 -0.020300 -0.919200 2.526500 -0.415516 3.270253 6.760556 0.364450 4.350027 0.441485 -2.039244 2.186168 -4.076501 -10.900374 -1.111178 -15.589378 3.938339 1.384112 25.095506 4.519000 -0.509900 15.915400 -6.136955 -1.380851 -1.581163 -77.256074 2.321669 18.545665 17.789887 -25.535003 -4.923041 -1.505963 -2.293556 3.345146 23.166613 21.342676 10.397200 -7.125000 0.000000 0.000000 -5.078600 55.646600 -1.329400 4.976840 1.222403 -1.338006 83.582061 -3.833511 13.292775 -20.790554 30.054149 -6.090187 0.396060 -0.216956 6.788336 -16.701758 11.067897 -3.429700 7.125000 0.000000 0.000000 7.019800 -18.305000 4.493700 
-75.085518 106.178244 38.800314 3.363476 71.188088 4.840603 -3.518917 0.909030 2.134688 -16.853359 -2.669817 -12.945875 1.219639 9.836853 29.449622 1.074540 -5.013215 -5.929966 0.162400 -2.596300 -7.156800 1.342249 -1.126434 1.232483 20.106811 -7.910960 -9.551137 -2.514572 -10.341766 31.458738 -0.240895 -2.728260 -12.877430 -0.017200 -0.846100 2.325400 0.949356 3.182846 6.982659 0.384640 4.377491 0.493440 -2.807120 2.204558 -3.970045 -11.617299 -0.900451 -16.146044 3.968383 1.989884 25.219003 4.792600 -0.396400 16.064000 -6.185499 -1.361900 -1.600453 -78.287242 2.138723 16.768198 17.743036 -25.389271 -4.866924 -1.486065 -2.183577 5.199240 22.317025 20.476122 9.599900 -7.125000 0.000000 0.000000 -5.744400 54.487200 -1.342400 4.974815 1.251215 -1.313832 82.723950 -2.901203 14.459304 -20.433952 29.639293 -5.898925 0.399679 -0.213555 6.487491 -16.656932 10.888758 -3.366500 7.125000 0.000000 0.000000 7.049600 -18.494700 4.483300 
-75.382266 106.066662 37.826238 2.324801 68.422088 3.643279 -3.322236 0.853510 1.931054 -16.962538 -3.399198 -14.112966 1.892777 10.845440 32.678898 0.982865 -4.516469 -6.200292 0.332300 -3.705000 -10.248100 1.427008 -1.119526 1.354660 19.282458 -6.404546 -8.107308 -2.168311 -9.730106 29.528466 -0.763761 -0.328835 -12.162008 -0.021000 -0.935700 2.572000 1.537075 3.621979 7.758339 0.381812 5.030298 0.484692 -3.322429 2.529161 -4.352421 -11.690369 -0.987761 -16.218199 3.915809 1.882604 25.049151 4.756300 -0.456600 16.027100 -6.195846 -1.349800 -1.632484 -79.670300 2.123528 16.312866 17.953353 -25.566452 -4.939293 -1.651064 -2.271131 3.877826 24.821128 21.281204 11.211500 -7.125000 0.000000 0.000000 -3.147100 55.946700 -0.845800 4.976666 1.300513 -1.289497 82.101790 -2.245933 14.272543 -20.302241 29.466265 -5.821273 0.402635 -0.199502 6.424254 -16.662144 10.401130 -3.217100 7.125000 0.000000 0.000000 7.046300 -19.012400 4.399700 
